<mxfile host="app.diagrams.net" agent="Mozilla/5.0 (Windows NT 10.0; Win64; x64) AppleWebKit/537.36 (KHTML, like Gecko) Chrome/133.0.0.0 Safari/537.36" version="26.0.13">
  <diagram id="C5RBs43oDa-KdzZeNtuy" name="Page-1">
    <mxGraphModel grid="1" page="1" gridSize="10" guides="1" tooltips="1" connect="1" arrows="1" fold="1" pageScale="1" pageWidth="827" pageHeight="1169" math="0" shadow="0">
      <root>
        <mxCell id="WIyWlLk6GJQsqaUBKTNV-0" />
        <mxCell id="WIyWlLk6GJQsqaUBKTNV-1" parent="WIyWlLk6GJQsqaUBKTNV-0" />
        <mxCell id="UvULJaHV5ZMOnEUw8GII-5" style="edgeStyle=orthogonalEdgeStyle;rounded=0;orthogonalLoop=1;jettySize=auto;html=1;exitX=0.5;exitY=1;exitDx=0;exitDy=0;entryX=0.5;entryY=0;entryDx=0;entryDy=0;" edge="1" parent="WIyWlLk6GJQsqaUBKTNV-1" source="UvULJaHV5ZMOnEUw8GII-0" target="UvULJaHV5ZMOnEUw8GII-1">
          <mxGeometry relative="1" as="geometry">
            <mxPoint x="230" y="170" as="sourcePoint" />
          </mxGeometry>
        </mxCell>
        <mxCell id="UvULJaHV5ZMOnEUw8GII-0" value="Camera feed" style="rounded=0;whiteSpace=wrap;html=1;" vertex="1" parent="WIyWlLk6GJQsqaUBKTNV-1">
          <mxGeometry x="170" y="90" width="120" height="60" as="geometry" />
        </mxCell>
        <mxCell id="UvULJaHV5ZMOnEUw8GII-17" style="edgeStyle=orthogonalEdgeStyle;rounded=0;orthogonalLoop=1;jettySize=auto;html=1;exitX=1;exitY=0.5;exitDx=0;exitDy=0;entryX=0;entryY=0.5;entryDx=0;entryDy=0;" edge="1" parent="WIyWlLk6GJQsqaUBKTNV-1" source="UvULJaHV5ZMOnEUw8GII-1" target="UvULJaHV5ZMOnEUw8GII-3">
          <mxGeometry relative="1" as="geometry" />
        </mxCell>
        <mxCell id="UvULJaHV5ZMOnEUw8GII-1" value="AI processing" style="rounded=0;whiteSpace=wrap;html=1;" vertex="1" parent="WIyWlLk6GJQsqaUBKTNV-1">
          <mxGeometry x="170" y="210" width="120" height="60" as="geometry" />
        </mxCell>
        <mxCell id="UvULJaHV5ZMOnEUw8GII-4" style="edgeStyle=orthogonalEdgeStyle;rounded=0;orthogonalLoop=1;jettySize=auto;html=1;exitX=1;exitY=0.5;exitDx=0;exitDy=0;entryX=0.5;entryY=1;entryDx=0;entryDy=0;" edge="1" parent="WIyWlLk6GJQsqaUBKTNV-1" source="UvULJaHV5ZMOnEUw8GII-2" target="UvULJaHV5ZMOnEUw8GII-3">
          <mxGeometry relative="1" as="geometry" />
        </mxCell>
        <mxCell id="UvULJaHV5ZMOnEUw8GII-23" style="edgeStyle=orthogonalEdgeStyle;rounded=0;orthogonalLoop=1;jettySize=auto;html=1;exitX=1;exitY=0.5;exitDx=0;exitDy=0;entryX=1;entryY=0.5;entryDx=0;entryDy=0;" edge="1" parent="WIyWlLk6GJQsqaUBKTNV-1" source="UvULJaHV5ZMOnEUw8GII-2" target="UvULJaHV5ZMOnEUw8GII-12">
          <mxGeometry relative="1" as="geometry">
            <Array as="points">
              <mxPoint x="660" y="430" />
              <mxPoint x="660" y="555" />
            </Array>
          </mxGeometry>
        </mxCell>
        <mxCell id="UvULJaHV5ZMOnEUw8GII-2" value="Enter emp_id with timeline" style="rounded=0;whiteSpace=wrap;html=1;" vertex="1" parent="WIyWlLk6GJQsqaUBKTNV-1">
          <mxGeometry x="480" y="400" width="120" height="60" as="geometry" />
        </mxCell>
        <mxCell id="UvULJaHV5ZMOnEUw8GII-3" value="Table with emp_id, log, cam_id" style="rounded=1;whiteSpace=wrap;html=1;" vertex="1" parent="WIyWlLk6GJQsqaUBKTNV-1">
          <mxGeometry x="600" y="210" width="120" height="60" as="geometry" />
        </mxCell>
        <mxCell id="UvULJaHV5ZMOnEUw8GII-8" style="edgeStyle=orthogonalEdgeStyle;rounded=0;orthogonalLoop=1;jettySize=auto;html=1;exitX=1;exitY=0.5;exitDx=0;exitDy=0;entryX=0;entryY=0.5;entryDx=0;entryDy=0;" edge="1" parent="WIyWlLk6GJQsqaUBKTNV-1" source="UvULJaHV5ZMOnEUw8GII-6" target="UvULJaHV5ZMOnEUw8GII-7">
          <mxGeometry relative="1" as="geometry" />
        </mxCell>
        <mxCell id="UvULJaHV5ZMOnEUw8GII-6" value="Login for admin access" style="whiteSpace=wrap;html=1;aspect=fixed;" vertex="1" parent="WIyWlLk6GJQsqaUBKTNV-1">
          <mxGeometry x="160" y="390" width="80" height="80" as="geometry" />
        </mxCell>
        <mxCell id="UvULJaHV5ZMOnEUw8GII-9" style="edgeStyle=orthogonalEdgeStyle;rounded=0;orthogonalLoop=1;jettySize=auto;html=1;exitX=1;exitY=0.5;exitDx=0;exitDy=0;" edge="1" parent="WIyWlLk6GJQsqaUBKTNV-1" source="UvULJaHV5ZMOnEUw8GII-7" target="UvULJaHV5ZMOnEUw8GII-2">
          <mxGeometry relative="1" as="geometry" />
        </mxCell>
        <mxCell id="UvULJaHV5ZMOnEUw8GII-11" style="edgeStyle=orthogonalEdgeStyle;rounded=0;orthogonalLoop=1;jettySize=auto;html=1;exitX=0.5;exitY=0;exitDx=0;exitDy=0;entryX=0.5;entryY=1;entryDx=0;entryDy=0;" edge="1" parent="WIyWlLk6GJQsqaUBKTNV-1" source="UvULJaHV5ZMOnEUw8GII-7" target="UvULJaHV5ZMOnEUw8GII-10">
          <mxGeometry relative="1" as="geometry" />
        </mxCell>
        <mxCell id="UvULJaHV5ZMOnEUw8GII-7" value="Homepage" style="rounded=0;whiteSpace=wrap;html=1;" vertex="1" parent="WIyWlLk6GJQsqaUBKTNV-1">
          <mxGeometry x="320" y="405" width="80" height="50" as="geometry" />
        </mxCell>
        <mxCell id="UvULJaHV5ZMOnEUw8GII-10" value="Live cam feed" style="rounded=0;whiteSpace=wrap;html=1;" vertex="1" parent="WIyWlLk6GJQsqaUBKTNV-1">
          <mxGeometry x="315" y="310" width="90" height="50" as="geometry" />
        </mxCell>
        <mxCell id="UvULJaHV5ZMOnEUw8GII-15" style="edgeStyle=orthogonalEdgeStyle;rounded=0;orthogonalLoop=1;jettySize=auto;html=1;exitX=0;exitY=0.5;exitDx=0;exitDy=0;entryX=1;entryY=0.5;entryDx=0;entryDy=0;" edge="1" parent="WIyWlLk6GJQsqaUBKTNV-1" source="UvULJaHV5ZMOnEUw8GII-12" target="UvULJaHV5ZMOnEUw8GII-14">
          <mxGeometry relative="1" as="geometry" />
        </mxCell>
        <mxCell id="UvULJaHV5ZMOnEUw8GII-12" value="Request camera feed for that emp_id from each camera" style="rounded=0;whiteSpace=wrap;html=1;" vertex="1" parent="WIyWlLk6GJQsqaUBKTNV-1">
          <mxGeometry x="474" y="525" width="120" height="60" as="geometry" />
        </mxCell>
        <mxCell id="UvULJaHV5ZMOnEUw8GII-14" value="Display live feed" style="rounded=0;whiteSpace=wrap;html=1;" vertex="1" parent="WIyWlLk6GJQsqaUBKTNV-1">
          <mxGeometry x="234" y="525" width="120" height="60" as="geometry" />
        </mxCell>
        <mxCell id="UvULJaHV5ZMOnEUw8GII-18" value="&lt;font style=&quot;font-size: 15px;&quot;&gt;Access the table&lt;/font&gt;" style="text;html=1;align=center;verticalAlign=middle;whiteSpace=wrap;rounded=0;rotation=-90;" vertex="1" parent="WIyWlLk6GJQsqaUBKTNV-1">
          <mxGeometry x="660" y="300" width="80" height="70" as="geometry" />
        </mxCell>
      </root>
    </mxGraphModel>
  </diagram>
</mxfile>
